<svg id="Layer_1" enable-background="new 0 0 512 512" height="512" viewBox="0 0 512 512" width="512" xmlns="http://www.w3.org/2000/svg"><g><path d="m319.2 414.535c0-88.005-71.597-159.602-159.601-159.602s-159.599 71.598-159.599 159.602v82.465c0 8.284 6.716 15 15 15h289.2c8.284 0 15-6.716 15-15z" fill="#ff6162"/><path d="m159.6 254.934v257.066h144.6c8.284 0 15-6.716 15-15v-82.465c0-88.004-71.596-159.601-159.6-159.601z" fill="#fe136b"/><g><ellipse cx="399.533" cy="399.533" fill="#73ed15" rx="112.467" ry="112.466" transform="matrix(.16 -.987 .987 .16 -58.839 729.909)"/><path d="m399.533 287.066c62.014 0 112.467 50.453 112.467 112.467s-50.453 112.467-112.467 112.467z" fill="#00de3c"/><path d="m391.5 446.667c-3.979 0-7.793-1.58-10.607-4.394l-32.133-32.133c-5.857-5.857-5.857-15.355 0-21.213 5.858-5.858 15.355-5.858 21.213 0l21.526 21.527 45.627-45.627c5.857-5.857 15.355-5.857 21.213 0s5.858 15.355 0 21.213l-56.233 56.233c-2.812 2.814-6.628 4.394-10.606 4.394z" fill="#f0f7fb"/><path d="m437.127 364.827-37.594 37.594v41.899c.921-.585 1.789-1.262 2.573-2.046l56.233-56.233c5.858-5.857 5.858-15.355 0-21.213-5.857-5.858-15.355-5.858-21.212-.001z" fill="#d6e4f3"/></g><g><path d="m15 94.267c-8.284 0-15-6.716-15-15v-64.267c0-8.284 6.716-15 15-15h64.267c8.284 0 15 6.716 15 15s-6.716 15-15 15h-49.267v49.267c0 8.284-6.716 15-15 15z" fill="#00fed8"/><path d="m79.267 319.2h-64.267c-8.284 0-15-6.716-15-15v-64.267c0-8.284 6.716-15 15-15s15 6.716 15 15v49.267h49.267c8.284 0 15 6.716 15 15s-6.716 15-15 15z" fill="#00fed8"/><path d="m304.2 94.267c-8.284 0-15-6.716-15-15v-49.267h-49.267c-8.284 0-15-6.716-15-15s6.716-15 15-15h64.267c8.284 0 15 6.716 15 15v64.267c0 8.284-6.716 15-15 15z" fill="#00e2cd"/><path d="m304.2 319.2h-64.267c-8.284 0-15-6.716-15-15s6.716-15 15-15h49.267v-49.267c0-8.284 6.716-15 15-15s15 6.716 15 15v64.267c0 8.284-6.716 15-15 15z" fill="#00e2cd"/><ellipse cx="159.6" cy="159.6" fill="#faa17b" rx="95.333" ry="95.333" transform="matrix(.383 -.924 .924 .383 -48.927 245.975)"/><path d="m159.6 64.267c52.567 0 95.333 42.767 95.333 95.333 0 52.567-42.766 95.334-95.333 95.334z" fill="#ef8564"/></g></g></svg>