<svg width="269" height="51" viewBox="0 0 269 51" fill="none" xmlns="http://www.w3.org/2000/svg">
<path d="M93.7174 8.80371H84.0859L78.1624 42.289H87.7939L89.961 29.9473H98.1476L95.9806 42.289H105.612L111.535 8.80371H101.904L99.7848 20.6672H91.5982L93.7174 8.80371Z" fill="#222944"/>
<path d="M110.426 42.289H132.578L134.119 33.487H121.598L122.272 29.7556H133.348L134.889 21.1454H123.813L124.439 17.5095H136.72L138.261 8.80371H116.349L110.426 42.289Z" fill="#222944"/>
<path d="M136.428 42.289H157.136L158.773 33.0082H147.697L151.983 8.80371H142.352L136.428 42.289Z" fill="#222944"/>
<path d="M160.023 42.289H180.731L182.369 33.0088L171.293 33.0082L175.579 8.80371H165.948L160.023 42.289Z" fill="#222944"/>
<path d="M183.618 42.289H193.25L194.936 32.8172H198.788C202.785 32.8172 206.011 31.7653 208.515 29.7082C211.068 27.6037 212.561 24.7813 213.091 21.289C213.621 17.5101 212.85 14.4967 210.779 12.2479C208.708 9.95179 206.06 8.80371 202.785 8.80371H189.542L183.618 42.289ZM201.148 18.0845C202.641 18.0845 203.893 19.0403 203.555 20.8108C203.315 22.4851 201.918 23.5377 200.425 23.5377H196.573L197.536 18.0845H201.148Z" fill="#222944"/>
<path d="M212.269 42.289H234.422L235.963 33.487H223.442L224.116 29.7556H235.192L236.733 21.1454H225.657L226.283 17.5101H238.563L240.104 8.80371H218.193L212.269 42.289Z" fill="#222944"/>
<path d="M238.272 42.2415H247.904L249.783 31.7171H252.865L256.331 42.2415H265.963L261.629 29.9953C265.434 28.0812 267.649 25.0684 268.371 21.0024C268.997 17.462 268.275 14.5441 266.156 12.2479C264.037 9.9043 261.244 8.75623 257.729 8.75623H244.244L238.272 42.2415ZM256.139 17.5581C258.065 17.5581 259.077 18.7537 258.739 20.7146C258.402 22.6761 257.006 23.8242 255.128 23.7761H251.179L252.286 17.5581H256.139Z" fill="#222944"/>
<path d="M22.064 38.9872L22.0411 39.0087C22.0118 39.0422 21.9806 39.0776 21.9475 39.1143C22.683 39.38 23.2007 39.614 23.7433 39.7545C27.1616 40.6394 30.6213 41.2972 34.1352 41.6964C37.7376 42.1056 41.3297 42.248 44.9149 41.5964C47.117 41.196 49.2712 40.5597 50.9307 39.0118C54.2421 35.9237 57.493 32.7692 60.6935 29.5679C62.1441 28.1168 63.3076 26.4121 64.2666 24.5878C66.0592 21.1796 66.3196 17.6918 64.8327 14.1033C63.2719 10.3384 60.526 7.65384 57.0784 5.60628C57.0427 5.58478 57.0071 5.5639 56.9714 5.54303C53.6995 3.61945 50.1443 2.40179 46.4706 1.53014C44.0775 0.96274 41.6507 0.537667 39.001 0C40.5904 1.11265 42.0092 1.98494 43.2873 3.02801C44.6971 4.17799 45.8446 5.50761 46.6655 7.05356L46.6661 7.05419C47.1316 7.9328 47.492 8.88099 47.7359 9.90572C47.9512 10.8122 48.032 11.6743 47.9365 12.4903C47.9365 12.4928 47.9359 12.4954 47.9352 12.4985C47.841 13.2993 47.5774 14.0559 47.1055 14.7643C47.1042 14.7662 47.103 14.7688 47.1017 14.7707C46.8756 15.1097 46.6018 15.4374 46.2758 15.7543C45.802 16.2148 45.332 16.6791 44.8627 17.1446L44.8621 17.1452L22.064 38.9872Z" fill="#D33434"/>
<path d="M43.7349 12.013L43.7578 11.9915C43.7871 11.958 43.8183 11.9225 43.8514 11.8859C43.1159 11.6202 42.5982 11.3861 42.0556 11.2457C38.6373 10.3608 35.1776 9.70293 31.6637 9.30379C28.0614 8.89453 24.4692 8.75221 20.884 9.40373C18.682 9.80414 16.5277 10.4405 14.8682 11.9883C11.5568 15.0764 8.30597 18.231 5.10542 21.4323C3.6548 22.8834 2.49137 24.5881 1.53235 26.4124C-0.260237 29.8205 -0.520687 33.3084 0.966237 36.8969C2.52703 40.6618 5.2729 43.3463 8.72053 45.3939C8.75619 45.4154 8.79185 45.4363 8.82751 45.4571C12.0994 47.3807 15.6546 48.5984 19.3283 49.47C21.7214 50.0374 24.1482 50.4625 26.798 51.0002C25.2085 49.8875 23.7897 49.0152 22.5117 47.9722C21.1018 46.8222 19.9543 45.4926 19.1334 43.9466L19.1328 43.946C18.6673 43.0674 18.3069 42.1192 18.063 41.0945C17.8478 40.188 17.7669 39.3258 17.8624 38.5099C17.8624 38.5073 17.863 38.5048 17.8637 38.5016C17.9579 37.7008 18.2216 36.9443 18.6934 36.2358C18.6947 36.2339 18.696 36.2314 18.6972 36.2295C18.9233 35.8905 19.1971 35.5628 19.5232 35.2459C19.997 34.7854 20.4669 34.3211 20.9362 33.8556L20.9369 33.8549L43.7349 12.013Z" fill="#222944"/>
</svg>
